<svg width="81" height="99" viewBox="0 0 81 99" fill="none" xmlns="http://www.w3.org/2000/svg">
<path d="M40.019 50.4907C37.2092 59.2724 34.3926 68.0542 31.5965 76.8359C29.7074 82.7747 27.7842 88.6998 26.011 94.6728C25.0767 97.8027 22.9557 99.2242 19.9413 98.9714C12.5213 98.3563 6.19933 95.3493 1.32313 89.5814C-0.327279 87.6337 -0.504595 85.9252 1.19355 83.6016C9.84113 71.7855 18.2773 59.8123 26.9931 47.6067C23.7741 46.8413 20.7665 47.3197 17.7999 47.183C14.2877 47.019 10.7618 46.9165 7.24959 47.0326C5.10815 47.101 4.508 46.3219 4.56256 44.2717C4.65804 40.4104 4.6444 36.5355 4.43298 32.6743C4.31705 30.5489 4.96493 29.968 7.06545 30.009C14.4445 30.132 21.8236 29.9749 29.1959 30.1115C31.3919 30.1526 32.108 29.599 32.0602 27.2959C31.8966 19.2249 32.0602 11.1471 31.8966 3.06924C31.8488 0.649985 32.5717 -0.060756 34.9382 0.0759249C38.4436 0.274112 41.9968 0.397125 45.4817 0.0485888C48.7416 -0.279445 49.1644 1.06003 49.0826 3.86882C48.8576 11.5981 49.0144 19.3343 48.8235 27.0636C48.7621 29.4418 49.4031 30.1594 51.8242 30.1115C59.1965 29.9544 66.5824 30.1115 73.9546 30.0159C75.8506 29.9885 76.5598 30.4874 76.4575 32.483C76.2529 36.5697 76.2052 40.6633 76.2461 44.7569C76.2666 46.5953 75.5368 47.0395 73.8182 47.019C67.3598 46.937 60.9082 46.9848 54.5726 46.9848C53.9793 48.4541 54.934 48.9872 55.4183 49.6637C63.5816 61.1381 71.7245 72.6261 80.0039 84.0185C81.3064 85.8158 81.3269 87.2305 80.0925 88.8502C75.1618 95.322 68.451 98.4657 60.5059 98.9577C57.4097 99.1491 55.7252 97.2629 54.784 94.2149C50.4193 80.1572 45.8705 66.1611 41.383 52.1445C41.2193 51.6251 41.0147 51.1194 40.8306 50.6068L40.0054 50.4907H40.019Z" fill="white"/>
</svg>
